<mxfile host="app.diagrams.net" agent="Mozilla/5.0 (Windows NT 10.0; Win64; x64) AppleWebKit/537.36 (KHTML, like Gecko) Chrome/129.0.0.0 Safari/537.36" version="24.8.1">
  <diagram name="Page-1" id="13e1069c-82ec-6db2-03f1-153e76fe0fe0">
    <mxGraphModel dx="451" dy="809" grid="1" gridSize="10" guides="1" tooltips="1" connect="1" arrows="1" fold="1" page="1" pageScale="1" pageWidth="1100" pageHeight="850" background="none" math="0" shadow="0">
      <root>
        <mxCell id="0" />
        <mxCell id="1" parent="0" />
        <mxCell id="0KgAQqfXrcrtNe9VFqc--1" value="" style="html=1;points=[[0,0,0,0,5],[0,1,0,0,-5],[1,0,0,0,5],[1,1,0,0,-5]];perimeter=orthogonalPerimeter;outlineConnect=0;targetShapes=umlLifeline;portConstraint=eastwest;newEdgeStyle={&quot;curved&quot;:0,&quot;rounded&quot;:0};" vertex="1" parent="1">
          <mxGeometry x="1250" y="210" width="20" height="840" as="geometry" />
        </mxCell>
        <mxCell id="0KgAQqfXrcrtNe9VFqc--2" value=":User" style="html=1;whiteSpace=wrap;" vertex="1" parent="1">
          <mxGeometry x="1205" y="90" width="110" height="50" as="geometry" />
        </mxCell>
        <mxCell id="0KgAQqfXrcrtNe9VFqc--3" value="" style="endArrow=none;dashed=1;html=1;rounded=0;entryX=0.5;entryY=1;entryDx=0;entryDy=0;" edge="1" parent="1" source="0KgAQqfXrcrtNe9VFqc--1">
          <mxGeometry width="50" height="50" relative="1" as="geometry">
            <mxPoint x="1259.9299999999998" y="170" as="sourcePoint" />
            <mxPoint x="1259.9299999999998" y="140" as="targetPoint" />
          </mxGeometry>
        </mxCell>
        <mxCell id="0KgAQqfXrcrtNe9VFqc--4" value=":SMS" style="html=1;whiteSpace=wrap;" vertex="1" parent="1">
          <mxGeometry x="1430" y="90" width="110" height="50" as="geometry" />
        </mxCell>
        <mxCell id="0KgAQqfXrcrtNe9VFqc--10" value="" style="endArrow=none;dashed=1;html=1;rounded=0;entryX=0.454;entryY=1.025;entryDx=0;entryDy=0;entryPerimeter=0;" edge="1" parent="1" target="0KgAQqfXrcrtNe9VFqc--4">
          <mxGeometry width="50" height="50" relative="1" as="geometry">
            <mxPoint x="1479.8699999999997" y="210" as="sourcePoint" />
            <mxPoint x="1479.8699999999997" y="180" as="targetPoint" />
          </mxGeometry>
        </mxCell>
        <mxCell id="0KgAQqfXrcrtNe9VFqc--25" value=":Admin" style="html=1;whiteSpace=wrap;" vertex="1" parent="1">
          <mxGeometry x="1689.5100000000002" y="90" width="110" height="50" as="geometry" />
        </mxCell>
        <mxCell id="0KgAQqfXrcrtNe9VFqc--76" value="" style="endArrow=none;dashed=1;html=1;rounded=0;entryX=0.5;entryY=1;entryDx=0;entryDy=0;" edge="1" parent="1">
          <mxGeometry width="50" height="50" relative="1" as="geometry">
            <mxPoint x="1744.2700000000004" y="840" as="sourcePoint" />
            <mxPoint x="1744.2700000000002" y="140" as="targetPoint" />
          </mxGeometry>
        </mxCell>
        <mxCell id="0KgAQqfXrcrtNe9VFqc--131" value="" style="endArrow=none;dashed=1;html=1;rounded=0;" edge="1" parent="1">
          <mxGeometry width="50" height="50" relative="1" as="geometry">
            <mxPoint x="1480" y="240" as="sourcePoint" />
            <mxPoint x="1480" y="210" as="targetPoint" />
          </mxGeometry>
        </mxCell>
        <mxCell id="0KgAQqfXrcrtNe9VFqc--186" value="" style="endArrow=none;dashed=1;html=1;rounded=0;" edge="1" parent="1" source="0KgAQqfXrcrtNe9VFqc--298">
          <mxGeometry width="50" height="50" relative="1" as="geometry">
            <mxPoint x="1744.5100000000002" y="1170" as="sourcePoint" />
            <mxPoint x="1744.5100000000002" y="210" as="targetPoint" />
          </mxGeometry>
        </mxCell>
        <mxCell id="0KgAQqfXrcrtNe9VFqc--286" value="" style="html=1;points=[[0,0,0,0,5],[0,1,0,0,-5],[1,0,0,0,5],[1,1,0,0,-5]];perimeter=orthogonalPerimeter;outlineConnect=0;targetShapes=umlLifeline;portConstraint=eastwest;newEdgeStyle={&quot;curved&quot;:0,&quot;rounded&quot;:0};" vertex="1" parent="1">
          <mxGeometry x="1470" y="244" width="20" height="50" as="geometry" />
        </mxCell>
        <mxCell id="0KgAQqfXrcrtNe9VFqc--287" value="" style="endArrow=classic;html=1;rounded=0;" edge="1" parent="1">
          <mxGeometry width="50" height="50" relative="1" as="geometry">
            <mxPoint x="1270" y="244" as="sourcePoint" />
            <mxPoint x="1470" y="244" as="targetPoint" />
          </mxGeometry>
        </mxCell>
        <mxCell id="0KgAQqfXrcrtNe9VFqc--288" value="Add user request" style="edgeLabel;html=1;align=center;verticalAlign=middle;resizable=0;points=[];" vertex="1" connectable="0" parent="0KgAQqfXrcrtNe9VFqc--287">
          <mxGeometry x="-0.276" relative="1" as="geometry">
            <mxPoint x="40" as="offset" />
          </mxGeometry>
        </mxCell>
        <mxCell id="0KgAQqfXrcrtNe9VFqc--289" value="" style="endArrow=open;endFill=1;endSize=12;html=1;rounded=0;" edge="1" parent="1" target="0KgAQqfXrcrtNe9VFqc--293">
          <mxGeometry width="160" relative="1" as="geometry">
            <mxPoint x="1490" y="294" as="sourcePoint" />
            <mxPoint x="1925" y="294" as="targetPoint" />
          </mxGeometry>
        </mxCell>
        <mxCell id="0KgAQqfXrcrtNe9VFqc--290" value="&lt;span style=&quot;color: rgba(0, 0, 0, 0); font-family: monospace; font-size: 0px; text-align: start; background-color: rgb(251, 251, 251);&quot;&gt;%3CmxGraphModel%3E%3Croot%3E%3CmxCell%20id%3D%220%22%2F%3E%3CmxCell%20id%3D%221%22%20parent%3D%220%22%2F%3E%3CmxCell%20id%3D%222%22%20value%3D%22Administrator%20issues%20the%20command%20sudo%20apt%20update%26lt%3Bdiv%26gt%3B%26lt%3Bbr%2F%26gt%3B%26lt%3B%2Fdiv%26gt%3B%22%20style%3D%22edgeLabel%3Bhtml%3D1%3Balign%3Dcenter%3BverticalAlign%3Dmiddle%3Bresizable%3D0%3Bpoints%3D%5B%5D%3B%22%20vertex%3D%221%22%20connectable%3D%220%22%20parent%3D%221%22%3E%3CmxGeometry%20x%3D%22359.8571428571429%22%20y%3D%22280%22%20as%3D%22geometry%22%2F%3E%3C%2FmxCell%3E%3C%2Froot%3E%3C%2FmxGraphModel%3E&lt;/span&gt;" style="edgeLabel;html=1;align=center;verticalAlign=middle;resizable=0;points=[];" vertex="1" connectable="0" parent="0KgAQqfXrcrtNe9VFqc--289">
          <mxGeometry x="0.1219" y="1" relative="1" as="geometry">
            <mxPoint x="-191" as="offset" />
          </mxGeometry>
        </mxCell>
        <mxCell id="0KgAQqfXrcrtNe9VFqc--291" value="&lt;span style=&quot;color: rgba(0, 0, 0, 0); font-family: monospace; font-size: 0px; text-align: start; background-color: rgb(251, 251, 251);&quot;&gt;%3CmxGraphModel%3E%3Croot%3E%3CmxCell%20id%3D%220%22%2F%3E%3CmxCell%20id%3D%221%22%20parent%3D%220%22%2F%3E%3CmxCell%20id%3D%222%22%20value%3D%22Administrator%20logs%20in%20with%20username%20and%20password%22%20style%3D%22edgeLabel%3Bhtml%3D1%3Balign%3Dcenter%3BverticalAlign%3Dmiddle%3Bresizable%3D0%3Bpoints%3D%5B%5D%3B%22%20vertex%3D%221%22%20connectable%3D%220%22%20parent%3D%221%22%3E%3CmxGeometry%20x%3D%22359.8571428571429%22%20y%3D%22177%22%20as%3D%22geometry%22%2F%3E%3C%2FmxCell%3E%3C%2Froot%3E%3C%2FmxGraphModel%3E&lt;/span&gt;" style="edgeLabel;html=1;align=center;verticalAlign=middle;resizable=0;points=[];" vertex="1" connectable="0" parent="0KgAQqfXrcrtNe9VFqc--289">
          <mxGeometry x="-0.0087" y="4" relative="1" as="geometry">
            <mxPoint x="-191" as="offset" />
          </mxGeometry>
        </mxCell>
        <mxCell id="0KgAQqfXrcrtNe9VFqc--292" value="Add user" style="edgeLabel;html=1;align=center;verticalAlign=middle;resizable=0;points=[];" vertex="1" connectable="0" parent="0KgAQqfXrcrtNe9VFqc--289">
          <mxGeometry x="0.0142" y="4" relative="1" as="geometry">
            <mxPoint x="-4" as="offset" />
          </mxGeometry>
        </mxCell>
        <mxCell id="0KgAQqfXrcrtNe9VFqc--293" value="" style="html=1;points=[[0,0,0,0,5],[0,1,0,0,-5],[1,0,0,0,5],[1,1,0,0,-5]];perimeter=orthogonalPerimeter;outlineConnect=0;targetShapes=umlLifeline;portConstraint=eastwest;newEdgeStyle={&quot;curved&quot;:0,&quot;rounded&quot;:0};" vertex="1" parent="1">
          <mxGeometry x="1734.5100000000002" y="244" width="20" height="50" as="geometry" />
        </mxCell>
        <mxCell id="0KgAQqfXrcrtNe9VFqc--294" value="" style="html=1;points=[[0,0,0,0,5],[0,1,0,0,-5],[1,0,0,0,5],[1,1,0,0,-5]];perimeter=orthogonalPerimeter;outlineConnect=0;targetShapes=umlLifeline;portConstraint=eastwest;newEdgeStyle={&quot;curved&quot;:0,&quot;rounded&quot;:0};" vertex="1" parent="1">
          <mxGeometry x="1734.5100000000002" y="344" width="20" height="50" as="geometry" />
        </mxCell>
        <mxCell id="0KgAQqfXrcrtNe9VFqc--295" value="" style="html=1;align=left;spacingLeft=2;endArrow=block;rounded=0;edgeStyle=orthogonalEdgeStyle;curved=0;rounded=0;" edge="1" parent="1">
          <mxGeometry x="-0.0588" y="80" relative="1" as="geometry">
            <mxPoint x="1759.5100000000002" y="344" as="sourcePoint" />
            <Array as="points">
              <mxPoint x="1789.5100000000002" y="374" />
            </Array>
            <mxPoint x="1764.5100000000002" y="374" as="targetPoint" />
            <mxPoint as="offset" />
          </mxGeometry>
        </mxCell>
        <mxCell id="0KgAQqfXrcrtNe9VFqc--296" value="User added" style="text;html=1;align=center;verticalAlign=middle;resizable=0;points=[];autosize=1;strokeColor=none;fillColor=none;" vertex="1" parent="1">
          <mxGeometry x="1789.5100000000002" y="334" width="90" height="30" as="geometry" />
        </mxCell>
        <mxCell id="0KgAQqfXrcrtNe9VFqc--297" value="" style="endArrow=none;dashed=1;html=1;rounded=0;" edge="1" parent="1">
          <mxGeometry width="50" height="50" relative="1" as="geometry">
            <mxPoint x="1744.3100000000002" y="691" as="sourcePoint" />
            <mxPoint x="1744.3100000000002" y="465" as="targetPoint" />
          </mxGeometry>
        </mxCell>
        <mxCell id="0KgAQqfXrcrtNe9VFqc--298" value="" style="html=1;points=[[0,0,0,0,5],[0,1,0,0,-5],[1,0,0,0,5],[1,1,0,0,-5]];perimeter=orthogonalPerimeter;outlineConnect=0;targetShapes=umlLifeline;portConstraint=eastwest;newEdgeStyle={&quot;curved&quot;:0,&quot;rounded&quot;:0};" vertex="1" parent="1">
          <mxGeometry x="1734.5100000000002" y="414" width="20" height="50" as="geometry" />
        </mxCell>
        <mxCell id="0KgAQqfXrcrtNe9VFqc--299" value="" style="endArrow=open;endFill=1;endSize=12;html=1;rounded=0;" edge="1" parent="1" target="0KgAQqfXrcrtNe9VFqc--303">
          <mxGeometry width="160" relative="1" as="geometry">
            <mxPoint x="1734.51" y="414" as="sourcePoint" />
            <mxPoint x="1494.51" y="414" as="targetPoint" />
          </mxGeometry>
        </mxCell>
        <mxCell id="0KgAQqfXrcrtNe9VFqc--300" value="&lt;span style=&quot;color: rgba(0, 0, 0, 0); font-family: monospace; font-size: 0px; text-align: start; background-color: rgb(251, 251, 251);&quot;&gt;%3CmxGraphModel%3E%3Croot%3E%3CmxCell%20id%3D%220%22%2F%3E%3CmxCell%20id%3D%221%22%20parent%3D%220%22%2F%3E%3CmxCell%20id%3D%222%22%20value%3D%22Administrator%20issues%20the%20command%20sudo%20apt%20update%26lt%3Bdiv%26gt%3B%26lt%3Bbr%2F%26gt%3B%26lt%3B%2Fdiv%26gt%3B%22%20style%3D%22edgeLabel%3Bhtml%3D1%3Balign%3Dcenter%3BverticalAlign%3Dmiddle%3Bresizable%3D0%3Bpoints%3D%5B%5D%3B%22%20vertex%3D%221%22%20connectable%3D%220%22%20parent%3D%221%22%3E%3CmxGeometry%20x%3D%22359.8571428571429%22%20y%3D%22280%22%20as%3D%22geometry%22%2F%3E%3C%2FmxCell%3E%3C%2Froot%3E%3C%2FmxGraphModel%3E&lt;/span&gt;" style="edgeLabel;html=1;align=center;verticalAlign=middle;resizable=0;points=[];" vertex="1" connectable="0" parent="0KgAQqfXrcrtNe9VFqc--299">
          <mxGeometry x="0.1219" y="1" relative="1" as="geometry">
            <mxPoint x="-191" as="offset" />
          </mxGeometry>
        </mxCell>
        <mxCell id="0KgAQqfXrcrtNe9VFqc--301" value="&lt;span style=&quot;color: rgba(0, 0, 0, 0); font-family: monospace; font-size: 0px; text-align: start; background-color: rgb(251, 251, 251);&quot;&gt;%3CmxGraphModel%3E%3Croot%3E%3CmxCell%20id%3D%220%22%2F%3E%3CmxCell%20id%3D%221%22%20parent%3D%220%22%2F%3E%3CmxCell%20id%3D%222%22%20value%3D%22Administrator%20logs%20in%20with%20username%20and%20password%22%20style%3D%22edgeLabel%3Bhtml%3D1%3Balign%3Dcenter%3BverticalAlign%3Dmiddle%3Bresizable%3D0%3Bpoints%3D%5B%5D%3B%22%20vertex%3D%221%22%20connectable%3D%220%22%20parent%3D%221%22%3E%3CmxGeometry%20x%3D%22359.8571428571429%22%20y%3D%22177%22%20as%3D%22geometry%22%2F%3E%3C%2FmxCell%3E%3C%2Froot%3E%3C%2FmxGraphModel%3E&lt;/span&gt;" style="edgeLabel;html=1;align=center;verticalAlign=middle;resizable=0;points=[];" vertex="1" connectable="0" parent="0KgAQqfXrcrtNe9VFqc--299">
          <mxGeometry x="-0.0087" y="4" relative="1" as="geometry">
            <mxPoint x="-191" as="offset" />
          </mxGeometry>
        </mxCell>
        <mxCell id="0KgAQqfXrcrtNe9VFqc--302" value="User add" style="edgeLabel;html=1;align=center;verticalAlign=middle;resizable=0;points=[];" vertex="1" connectable="0" parent="0KgAQqfXrcrtNe9VFqc--299">
          <mxGeometry x="0.0142" y="4" relative="1" as="geometry">
            <mxPoint x="-1" y="-4" as="offset" />
          </mxGeometry>
        </mxCell>
        <mxCell id="0KgAQqfXrcrtNe9VFqc--303" value="" style="html=1;points=[[0,0,0,0,5],[0,1,0,0,-5],[1,0,0,0,5],[1,1,0,0,-5]];perimeter=orthogonalPerimeter;outlineConnect=0;targetShapes=umlLifeline;portConstraint=eastwest;newEdgeStyle={&quot;curved&quot;:0,&quot;rounded&quot;:0};" vertex="1" parent="1">
          <mxGeometry x="1470" y="414" width="20" height="50" as="geometry" />
        </mxCell>
        <mxCell id="0KgAQqfXrcrtNe9VFqc--304" value="" style="endArrow=classic;html=1;rounded=0;" edge="1" parent="1">
          <mxGeometry width="50" height="50" relative="1" as="geometry">
            <mxPoint x="1472.5" y="464" as="sourcePoint" />
            <mxPoint x="1272.5" y="464" as="targetPoint" />
          </mxGeometry>
        </mxCell>
        <mxCell id="0KgAQqfXrcrtNe9VFqc--305" value="User added successfully&amp;nbsp;" style="edgeLabel;html=1;align=center;verticalAlign=middle;resizable=0;points=[];" vertex="1" connectable="0" parent="0KgAQqfXrcrtNe9VFqc--304">
          <mxGeometry x="0.0295" relative="1" as="geometry">
            <mxPoint x="13" as="offset" />
          </mxGeometry>
        </mxCell>
        <mxCell id="0KgAQqfXrcrtNe9VFqc--306" value="" style="html=1;points=[[0,0,0,0,5],[0,1,0,0,-5],[1,0,0,0,5],[1,1,0,0,-5]];perimeter=orthogonalPerimeter;outlineConnect=0;targetShapes=umlLifeline;portConstraint=eastwest;newEdgeStyle={&quot;curved&quot;:0,&quot;rounded&quot;:0};" vertex="1" parent="1">
          <mxGeometry x="1470" y="520" width="20" height="50" as="geometry" />
        </mxCell>
        <mxCell id="0KgAQqfXrcrtNe9VFqc--307" value="" style="endArrow=classic;html=1;rounded=0;" edge="1" parent="1">
          <mxGeometry width="50" height="50" relative="1" as="geometry">
            <mxPoint x="1270" y="520" as="sourcePoint" />
            <mxPoint x="1470" y="520" as="targetPoint" />
          </mxGeometry>
        </mxCell>
        <mxCell id="0KgAQqfXrcrtNe9VFqc--308" value="Delete user request" style="edgeLabel;html=1;align=center;verticalAlign=middle;resizable=0;points=[];" vertex="1" connectable="0" parent="0KgAQqfXrcrtNe9VFqc--307">
          <mxGeometry x="-0.0234" y="-1" relative="1" as="geometry">
            <mxPoint as="offset" />
          </mxGeometry>
        </mxCell>
        <mxCell id="0KgAQqfXrcrtNe9VFqc--309" value="" style="endArrow=open;endFill=1;endSize=12;html=1;rounded=0;" edge="1" parent="1" source="0KgAQqfXrcrtNe9VFqc--306">
          <mxGeometry width="160" relative="1" as="geometry">
            <mxPoint x="1494.51" y="570" as="sourcePoint" />
            <mxPoint x="1734.51" y="570" as="targetPoint" />
          </mxGeometry>
        </mxCell>
        <mxCell id="0KgAQqfXrcrtNe9VFqc--310" value="&lt;span style=&quot;color: rgba(0, 0, 0, 0); font-family: monospace; font-size: 0px; text-align: start; background-color: rgb(251, 251, 251);&quot;&gt;%3CmxGraphModel%3E%3Croot%3E%3CmxCell%20id%3D%220%22%2F%3E%3CmxCell%20id%3D%221%22%20parent%3D%220%22%2F%3E%3CmxCell%20id%3D%222%22%20value%3D%22Administrator%20issues%20the%20command%20sudo%20apt%20update%26lt%3Bdiv%26gt%3B%26lt%3Bbr%2F%26gt%3B%26lt%3B%2Fdiv%26gt%3B%22%20style%3D%22edgeLabel%3Bhtml%3D1%3Balign%3Dcenter%3BverticalAlign%3Dmiddle%3Bresizable%3D0%3Bpoints%3D%5B%5D%3B%22%20vertex%3D%221%22%20connectable%3D%220%22%20parent%3D%221%22%3E%3CmxGeometry%20x%3D%22359.8571428571429%22%20y%3D%22280%22%20as%3D%22geometry%22%2F%3E%3C%2FmxCell%3E%3C%2Froot%3E%3C%2FmxGraphModel%3E&lt;/span&gt;" style="edgeLabel;html=1;align=center;verticalAlign=middle;resizable=0;points=[];" vertex="1" connectable="0" parent="0KgAQqfXrcrtNe9VFqc--309">
          <mxGeometry x="0.1219" y="1" relative="1" as="geometry">
            <mxPoint x="-191" as="offset" />
          </mxGeometry>
        </mxCell>
        <mxCell id="0KgAQqfXrcrtNe9VFqc--311" value="&lt;span style=&quot;color: rgba(0, 0, 0, 0); font-family: monospace; font-size: 0px; text-align: start; background-color: rgb(251, 251, 251);&quot;&gt;%3CmxGraphModel%3E%3Croot%3E%3CmxCell%20id%3D%220%22%2F%3E%3CmxCell%20id%3D%221%22%20parent%3D%220%22%2F%3E%3CmxCell%20id%3D%222%22%20value%3D%22Administrator%20logs%20in%20with%20username%20and%20password%22%20style%3D%22edgeLabel%3Bhtml%3D1%3Balign%3Dcenter%3BverticalAlign%3Dmiddle%3Bresizable%3D0%3Bpoints%3D%5B%5D%3B%22%20vertex%3D%221%22%20connectable%3D%220%22%20parent%3D%221%22%3E%3CmxGeometry%20x%3D%22359.8571428571429%22%20y%3D%22177%22%20as%3D%22geometry%22%2F%3E%3C%2FmxCell%3E%3C%2Froot%3E%3C%2FmxGraphModel%3E&lt;/span&gt;" style="edgeLabel;html=1;align=center;verticalAlign=middle;resizable=0;points=[];" vertex="1" connectable="0" parent="0KgAQqfXrcrtNe9VFqc--309">
          <mxGeometry x="-0.0087" y="4" relative="1" as="geometry">
            <mxPoint x="-191" as="offset" />
          </mxGeometry>
        </mxCell>
        <mxCell id="0KgAQqfXrcrtNe9VFqc--312" value="User remove" style="edgeLabel;html=1;align=center;verticalAlign=middle;resizable=0;points=[];" vertex="1" connectable="0" parent="0KgAQqfXrcrtNe9VFqc--309">
          <mxGeometry x="0.0142" y="4" relative="1" as="geometry">
            <mxPoint x="-2" y="4" as="offset" />
          </mxGeometry>
        </mxCell>
        <mxCell id="0KgAQqfXrcrtNe9VFqc--313" value="" style="html=1;points=[[0,0,0,0,5],[0,1,0,0,-5],[1,0,0,0,5],[1,1,0,0,-5]];perimeter=orthogonalPerimeter;outlineConnect=0;targetShapes=umlLifeline;portConstraint=eastwest;newEdgeStyle={&quot;curved&quot;:0,&quot;rounded&quot;:0};" vertex="1" parent="1">
          <mxGeometry x="1734.5100000000002" y="520" width="20" height="50" as="geometry" />
        </mxCell>
        <mxCell id="0KgAQqfXrcrtNe9VFqc--314" value="" style="html=1;points=[[0,0,0,0,5],[0,1,0,0,-5],[1,0,0,0,5],[1,1,0,0,-5]];perimeter=orthogonalPerimeter;outlineConnect=0;targetShapes=umlLifeline;portConstraint=eastwest;newEdgeStyle={&quot;curved&quot;:0,&quot;rounded&quot;:0};" vertex="1" parent="1">
          <mxGeometry x="1734.5100000000002" y="620" width="20" height="50" as="geometry" />
        </mxCell>
        <mxCell id="0KgAQqfXrcrtNe9VFqc--315" value="" style="html=1;align=left;spacingLeft=2;endArrow=block;rounded=0;edgeStyle=orthogonalEdgeStyle;curved=0;rounded=0;" edge="1" parent="1">
          <mxGeometry x="-0.0588" y="80" relative="1" as="geometry">
            <mxPoint x="1759.5100000000002" y="620" as="sourcePoint" />
            <Array as="points">
              <mxPoint x="1789.5100000000002" y="650" />
            </Array>
            <mxPoint x="1764.5100000000002" y="650" as="targetPoint" />
            <mxPoint as="offset" />
          </mxGeometry>
        </mxCell>
        <mxCell id="0KgAQqfXrcrtNe9VFqc--316" value="User removed" style="text;html=1;align=center;verticalAlign=middle;resizable=0;points=[];autosize=1;strokeColor=none;fillColor=none;" vertex="1" parent="1">
          <mxGeometry x="1784.5100000000002" y="610" width="100" height="30" as="geometry" />
        </mxCell>
        <mxCell id="0KgAQqfXrcrtNe9VFqc--317" value="" style="endArrow=open;endFill=1;endSize=12;html=1;rounded=0;" edge="1" parent="1" target="0KgAQqfXrcrtNe9VFqc--321">
          <mxGeometry width="160" relative="1" as="geometry">
            <mxPoint x="1734.51" y="689.6" as="sourcePoint" />
            <mxPoint x="1494.51" y="689.6" as="targetPoint" />
          </mxGeometry>
        </mxCell>
        <mxCell id="0KgAQqfXrcrtNe9VFqc--318" value="&lt;span style=&quot;color: rgba(0, 0, 0, 0); font-family: monospace; font-size: 0px; text-align: start; background-color: rgb(251, 251, 251);&quot;&gt;%3CmxGraphModel%3E%3Croot%3E%3CmxCell%20id%3D%220%22%2F%3E%3CmxCell%20id%3D%221%22%20parent%3D%220%22%2F%3E%3CmxCell%20id%3D%222%22%20value%3D%22Administrator%20issues%20the%20command%20sudo%20apt%20update%26lt%3Bdiv%26gt%3B%26lt%3Bbr%2F%26gt%3B%26lt%3B%2Fdiv%26gt%3B%22%20style%3D%22edgeLabel%3Bhtml%3D1%3Balign%3Dcenter%3BverticalAlign%3Dmiddle%3Bresizable%3D0%3Bpoints%3D%5B%5D%3B%22%20vertex%3D%221%22%20connectable%3D%220%22%20parent%3D%221%22%3E%3CmxGeometry%20x%3D%22359.8571428571429%22%20y%3D%22280%22%20as%3D%22geometry%22%2F%3E%3C%2FmxCell%3E%3C%2Froot%3E%3C%2FmxGraphModel%3E&lt;/span&gt;" style="edgeLabel;html=1;align=center;verticalAlign=middle;resizable=0;points=[];" vertex="1" connectable="0" parent="0KgAQqfXrcrtNe9VFqc--317">
          <mxGeometry x="0.1219" y="1" relative="1" as="geometry">
            <mxPoint x="-191" as="offset" />
          </mxGeometry>
        </mxCell>
        <mxCell id="0KgAQqfXrcrtNe9VFqc--319" value="&lt;span style=&quot;color: rgba(0, 0, 0, 0); font-family: monospace; font-size: 0px; text-align: start; background-color: rgb(251, 251, 251);&quot;&gt;%3CmxGraphModel%3E%3Croot%3E%3CmxCell%20id%3D%220%22%2F%3E%3CmxCell%20id%3D%221%22%20parent%3D%220%22%2F%3E%3CmxCell%20id%3D%222%22%20value%3D%22Administrator%20logs%20in%20with%20username%20and%20password%22%20style%3D%22edgeLabel%3Bhtml%3D1%3Balign%3Dcenter%3BverticalAlign%3Dmiddle%3Bresizable%3D0%3Bpoints%3D%5B%5D%3B%22%20vertex%3D%221%22%20connectable%3D%220%22%20parent%3D%221%22%3E%3CmxGeometry%20x%3D%22359.8571428571429%22%20y%3D%22177%22%20as%3D%22geometry%22%2F%3E%3C%2FmxCell%3E%3C%2Froot%3E%3C%2FmxGraphModel%3E&lt;/span&gt;" style="edgeLabel;html=1;align=center;verticalAlign=middle;resizable=0;points=[];" vertex="1" connectable="0" parent="0KgAQqfXrcrtNe9VFqc--317">
          <mxGeometry x="-0.0087" y="4" relative="1" as="geometry">
            <mxPoint x="-191" as="offset" />
          </mxGeometry>
        </mxCell>
        <mxCell id="0KgAQqfXrcrtNe9VFqc--320" value="User removed" style="edgeLabel;html=1;align=center;verticalAlign=middle;resizable=0;points=[];" vertex="1" connectable="0" parent="0KgAQqfXrcrtNe9VFqc--317">
          <mxGeometry x="0.0142" y="4" relative="1" as="geometry">
            <mxPoint x="-3" y="-4" as="offset" />
          </mxGeometry>
        </mxCell>
        <mxCell id="0KgAQqfXrcrtNe9VFqc--321" value="" style="html=1;points=[[0,0,0,0,5],[0,1,0,0,-5],[1,0,0,0,5],[1,1,0,0,-5]];perimeter=orthogonalPerimeter;outlineConnect=0;targetShapes=umlLifeline;portConstraint=eastwest;newEdgeStyle={&quot;curved&quot;:0,&quot;rounded&quot;:0};" vertex="1" parent="1">
          <mxGeometry x="1470" y="690" width="20" height="50" as="geometry" />
        </mxCell>
        <mxCell id="0KgAQqfXrcrtNe9VFqc--322" value="" style="endArrow=classic;html=1;rounded=0;" edge="1" parent="1">
          <mxGeometry width="50" height="50" relative="1" as="geometry">
            <mxPoint x="1472.5" y="740" as="sourcePoint" />
            <mxPoint x="1270" y="740" as="targetPoint" />
          </mxGeometry>
        </mxCell>
        <mxCell id="0KgAQqfXrcrtNe9VFqc--323" value="User removed successfully" style="edgeLabel;html=1;align=center;verticalAlign=middle;resizable=0;points=[];" vertex="1" connectable="0" parent="0KgAQqfXrcrtNe9VFqc--322">
          <mxGeometry x="0.0295" relative="1" as="geometry">
            <mxPoint x="13" as="offset" />
          </mxGeometry>
        </mxCell>
        <mxCell id="0KgAQqfXrcrtNe9VFqc--324" value="" style="html=1;points=[[0,0,0,0,5],[0,1,0,0,-5],[1,0,0,0,5],[1,1,0,0,-5]];perimeter=orthogonalPerimeter;outlineConnect=0;targetShapes=umlLifeline;portConstraint=eastwest;newEdgeStyle={&quot;curved&quot;:0,&quot;rounded&quot;:0};" vertex="1" parent="1">
          <mxGeometry x="1470" y="800" width="20" height="50" as="geometry" />
        </mxCell>
        <mxCell id="0KgAQqfXrcrtNe9VFqc--325" value="" style="endArrow=classic;html=1;rounded=0;" edge="1" parent="1">
          <mxGeometry width="50" height="50" relative="1" as="geometry">
            <mxPoint x="1270" y="800" as="sourcePoint" />
            <mxPoint x="1470" y="800" as="targetPoint" />
          </mxGeometry>
        </mxCell>
        <mxCell id="0KgAQqfXrcrtNe9VFqc--326" value="Update user info request" style="edgeLabel;html=1;align=center;verticalAlign=middle;resizable=0;points=[];" vertex="1" connectable="0" parent="0KgAQqfXrcrtNe9VFqc--325">
          <mxGeometry x="-0.0234" y="-1" relative="1" as="geometry">
            <mxPoint x="12" y="-1" as="offset" />
          </mxGeometry>
        </mxCell>
        <mxCell id="0KgAQqfXrcrtNe9VFqc--327" value="" style="endArrow=open;endFill=1;endSize=12;html=1;rounded=0;" edge="1" parent="1" target="0KgAQqfXrcrtNe9VFqc--346">
          <mxGeometry width="160" relative="1" as="geometry">
            <mxPoint x="1490" y="850" as="sourcePoint" />
            <mxPoint x="1925" y="850" as="targetPoint" />
          </mxGeometry>
        </mxCell>
        <mxCell id="0KgAQqfXrcrtNe9VFqc--328" value="&lt;span style=&quot;color: rgba(0, 0, 0, 0); font-family: monospace; font-size: 0px; text-align: start; background-color: rgb(251, 251, 251);&quot;&gt;%3CmxGraphModel%3E%3Croot%3E%3CmxCell%20id%3D%220%22%2F%3E%3CmxCell%20id%3D%221%22%20parent%3D%220%22%2F%3E%3CmxCell%20id%3D%222%22%20value%3D%22Administrator%20issues%20the%20command%20sudo%20apt%20update%26lt%3Bdiv%26gt%3B%26lt%3Bbr%2F%26gt%3B%26lt%3B%2Fdiv%26gt%3B%22%20style%3D%22edgeLabel%3Bhtml%3D1%3Balign%3Dcenter%3BverticalAlign%3Dmiddle%3Bresizable%3D0%3Bpoints%3D%5B%5D%3B%22%20vertex%3D%221%22%20connectable%3D%220%22%20parent%3D%221%22%3E%3CmxGeometry%20x%3D%22359.8571428571429%22%20y%3D%22280%22%20as%3D%22geometry%22%2F%3E%3C%2FmxCell%3E%3C%2Froot%3E%3C%2FmxGraphModel%3E&lt;/span&gt;" style="edgeLabel;html=1;align=center;verticalAlign=middle;resizable=0;points=[];" vertex="1" connectable="0" parent="0KgAQqfXrcrtNe9VFqc--327">
          <mxGeometry x="0.1219" y="1" relative="1" as="geometry">
            <mxPoint x="-191" as="offset" />
          </mxGeometry>
        </mxCell>
        <mxCell id="0KgAQqfXrcrtNe9VFqc--329" value="&lt;span style=&quot;color: rgba(0, 0, 0, 0); font-family: monospace; font-size: 0px; text-align: start; background-color: rgb(251, 251, 251);&quot;&gt;%3CmxGraphModel%3E%3Croot%3E%3CmxCell%20id%3D%220%22%2F%3E%3CmxCell%20id%3D%221%22%20parent%3D%220%22%2F%3E%3CmxCell%20id%3D%222%22%20value%3D%22Administrator%20logs%20in%20with%20username%20and%20password%22%20style%3D%22edgeLabel%3Bhtml%3D1%3Balign%3Dcenter%3BverticalAlign%3Dmiddle%3Bresizable%3D0%3Bpoints%3D%5B%5D%3B%22%20vertex%3D%221%22%20connectable%3D%220%22%20parent%3D%221%22%3E%3CmxGeometry%20x%3D%22359.8571428571429%22%20y%3D%22177%22%20as%3D%22geometry%22%2F%3E%3C%2FmxCell%3E%3C%2Froot%3E%3C%2FmxGraphModel%3E&lt;/span&gt;" style="edgeLabel;html=1;align=center;verticalAlign=middle;resizable=0;points=[];" vertex="1" connectable="0" parent="0KgAQqfXrcrtNe9VFqc--327">
          <mxGeometry x="-0.0087" y="4" relative="1" as="geometry">
            <mxPoint x="-191" as="offset" />
          </mxGeometry>
        </mxCell>
        <mxCell id="0KgAQqfXrcrtNe9VFqc--330" value="User info update" style="edgeLabel;html=1;align=center;verticalAlign=middle;resizable=0;points=[];" vertex="1" connectable="0" parent="0KgAQqfXrcrtNe9VFqc--327">
          <mxGeometry x="0.0142" y="4" relative="1" as="geometry">
            <mxPoint x="-4" y="4" as="offset" />
          </mxGeometry>
        </mxCell>
        <mxCell id="0KgAQqfXrcrtNe9VFqc--331" value="" style="html=1;align=left;spacingLeft=2;endArrow=block;rounded=0;edgeStyle=orthogonalEdgeStyle;curved=0;rounded=0;" edge="1" parent="1">
          <mxGeometry x="-0.0588" y="80" relative="1" as="geometry">
            <mxPoint x="1759.5100000000002" y="900" as="sourcePoint" />
            <Array as="points">
              <mxPoint x="1789.5100000000002" y="930" />
            </Array>
            <mxPoint x="1764.5100000000002" y="930" as="targetPoint" />
            <mxPoint as="offset" />
          </mxGeometry>
        </mxCell>
        <mxCell id="0KgAQqfXrcrtNe9VFqc--332" value="User info updated" style="text;html=1;align=center;verticalAlign=middle;resizable=0;points=[];autosize=1;strokeColor=none;fillColor=none;" vertex="1" parent="1">
          <mxGeometry x="1784.5100000000002" y="890" width="120" height="30" as="geometry" />
        </mxCell>
        <mxCell id="0KgAQqfXrcrtNe9VFqc--333" value="" style="endArrow=open;endFill=1;endSize=12;html=1;rounded=0;" edge="1" parent="1">
          <mxGeometry width="160" relative="1" as="geometry">
            <mxPoint x="1734.51" y="969.77" as="sourcePoint" />
            <mxPoint x="1490" y="970" as="targetPoint" />
          </mxGeometry>
        </mxCell>
        <mxCell id="0KgAQqfXrcrtNe9VFqc--334" value="&lt;span style=&quot;color: rgba(0, 0, 0, 0); font-family: monospace; font-size: 0px; text-align: start; background-color: rgb(251, 251, 251);&quot;&gt;%3CmxGraphModel%3E%3Croot%3E%3CmxCell%20id%3D%220%22%2F%3E%3CmxCell%20id%3D%221%22%20parent%3D%220%22%2F%3E%3CmxCell%20id%3D%222%22%20value%3D%22Administrator%20issues%20the%20command%20sudo%20apt%20update%26lt%3Bdiv%26gt%3B%26lt%3Bbr%2F%26gt%3B%26lt%3B%2Fdiv%26gt%3B%22%20style%3D%22edgeLabel%3Bhtml%3D1%3Balign%3Dcenter%3BverticalAlign%3Dmiddle%3Bresizable%3D0%3Bpoints%3D%5B%5D%3B%22%20vertex%3D%221%22%20connectable%3D%220%22%20parent%3D%221%22%3E%3CmxGeometry%20x%3D%22359.8571428571429%22%20y%3D%22280%22%20as%3D%22geometry%22%2F%3E%3C%2FmxCell%3E%3C%2Froot%3E%3C%2FmxGraphModel%3E&lt;/span&gt;" style="edgeLabel;html=1;align=center;verticalAlign=middle;resizable=0;points=[];" vertex="1" connectable="0" parent="0KgAQqfXrcrtNe9VFqc--333">
          <mxGeometry x="0.1219" y="1" relative="1" as="geometry">
            <mxPoint x="-191" as="offset" />
          </mxGeometry>
        </mxCell>
        <mxCell id="0KgAQqfXrcrtNe9VFqc--335" value="&lt;span style=&quot;color: rgba(0, 0, 0, 0); font-family: monospace; font-size: 0px; text-align: start; background-color: rgb(251, 251, 251);&quot;&gt;%3CmxGraphModel%3E%3Croot%3E%3CmxCell%20id%3D%220%22%2F%3E%3CmxCell%20id%3D%221%22%20parent%3D%220%22%2F%3E%3CmxCell%20id%3D%222%22%20value%3D%22Administrator%20logs%20in%20with%20username%20and%20password%22%20style%3D%22edgeLabel%3Bhtml%3D1%3Balign%3Dcenter%3BverticalAlign%3Dmiddle%3Bresizable%3D0%3Bpoints%3D%5B%5D%3B%22%20vertex%3D%221%22%20connectable%3D%220%22%20parent%3D%221%22%3E%3CmxGeometry%20x%3D%22359.8571428571429%22%20y%3D%22177%22%20as%3D%22geometry%22%2F%3E%3C%2FmxCell%3E%3C%2Froot%3E%3C%2FmxGraphModel%3E&lt;/span&gt;" style="edgeLabel;html=1;align=center;verticalAlign=middle;resizable=0;points=[];" vertex="1" connectable="0" parent="0KgAQqfXrcrtNe9VFqc--333">
          <mxGeometry x="-0.0087" y="4" relative="1" as="geometry">
            <mxPoint x="-191" as="offset" />
          </mxGeometry>
        </mxCell>
        <mxCell id="0KgAQqfXrcrtNe9VFqc--336" value="User info updated" style="edgeLabel;html=1;align=center;verticalAlign=middle;resizable=0;points=[];" vertex="1" connectable="0" parent="0KgAQqfXrcrtNe9VFqc--333">
          <mxGeometry x="0.0142" y="4" relative="1" as="geometry">
            <mxPoint x="-3" y="-4" as="offset" />
          </mxGeometry>
        </mxCell>
        <mxCell id="0KgAQqfXrcrtNe9VFqc--337" value="" style="html=1;points=[[0,0,0,0,5],[0,1,0,0,-5],[1,0,0,0,5],[1,1,0,0,-5]];perimeter=orthogonalPerimeter;outlineConnect=0;targetShapes=umlLifeline;portConstraint=eastwest;newEdgeStyle={&quot;curved&quot;:0,&quot;rounded&quot;:0};" vertex="1" parent="1">
          <mxGeometry x="1470" y="970" width="20" height="50" as="geometry" />
        </mxCell>
        <mxCell id="0KgAQqfXrcrtNe9VFqc--338" value="" style="endArrow=classic;html=1;rounded=0;" edge="1" parent="1">
          <mxGeometry width="50" height="50" relative="1" as="geometry">
            <mxPoint x="1472.5" y="1020" as="sourcePoint" />
            <mxPoint x="1270" y="1020" as="targetPoint" />
          </mxGeometry>
        </mxCell>
        <mxCell id="0KgAQqfXrcrtNe9VFqc--339" value="User info updated successfully&amp;nbsp;" style="edgeLabel;html=1;align=center;verticalAlign=middle;resizable=0;points=[];" vertex="1" connectable="0" parent="0KgAQqfXrcrtNe9VFqc--338">
          <mxGeometry x="0.0295" relative="1" as="geometry">
            <mxPoint x="13" as="offset" />
          </mxGeometry>
        </mxCell>
        <mxCell id="0KgAQqfXrcrtNe9VFqc--342" value="" style="html=1;points=[[0,0,0,0,5],[0,1,0,0,-5],[1,0,0,0,5],[1,1,0,0,-5]];perimeter=orthogonalPerimeter;outlineConnect=0;targetShapes=umlLifeline;portConstraint=eastwest;newEdgeStyle={&quot;curved&quot;:0,&quot;rounded&quot;:0};" vertex="1" parent="1">
          <mxGeometry x="1734.5100000000002" y="970" width="20" height="50" as="geometry" />
        </mxCell>
        <mxCell id="0KgAQqfXrcrtNe9VFqc--343" value="" style="endArrow=none;dashed=1;html=1;rounded=0;" edge="1" parent="1">
          <mxGeometry width="50" height="50" relative="1" as="geometry">
            <mxPoint x="1744.4500000000003" y="970" as="sourcePoint" />
            <mxPoint x="1744.4500000000003" y="950" as="targetPoint" />
            <Array as="points">
              <mxPoint x="1744.4500000000003" y="960" />
            </Array>
          </mxGeometry>
        </mxCell>
        <mxCell id="0KgAQqfXrcrtNe9VFqc--344" value="" style="html=1;points=[[0,0,0,0,5],[0,1,0,0,-5],[1,0,0,0,5],[1,1,0,0,-5]];perimeter=orthogonalPerimeter;outlineConnect=0;targetShapes=umlLifeline;portConstraint=eastwest;newEdgeStyle={&quot;curved&quot;:0,&quot;rounded&quot;:0};" vertex="1" parent="1">
          <mxGeometry x="1734.5100000000002" y="900" width="20" height="50" as="geometry" />
        </mxCell>
        <mxCell id="0KgAQqfXrcrtNe9VFqc--345" value="" style="endArrow=none;dashed=1;html=1;rounded=0;" edge="1" parent="1">
          <mxGeometry width="50" height="50" relative="1" as="geometry">
            <mxPoint x="1744.3100000000002" y="900" as="sourcePoint" />
            <mxPoint x="1744.3100000000002" y="850" as="targetPoint" />
          </mxGeometry>
        </mxCell>
        <mxCell id="0KgAQqfXrcrtNe9VFqc--346" value="" style="html=1;points=[[0,0,0,0,5],[0,1,0,0,-5],[1,0,0,0,5],[1,1,0,0,-5]];perimeter=orthogonalPerimeter;outlineConnect=0;targetShapes=umlLifeline;portConstraint=eastwest;newEdgeStyle={&quot;curved&quot;:0,&quot;rounded&quot;:0};" vertex="1" parent="1">
          <mxGeometry x="1734.5100000000002" y="800" width="20" height="50" as="geometry" />
        </mxCell>
        <mxCell id="0KgAQqfXrcrtNe9VFqc--347" value="" style="endArrow=none;dashed=1;html=1;rounded=0;" edge="1" parent="1">
          <mxGeometry width="50" height="50" relative="1" as="geometry">
            <mxPoint x="1744.3100000000002" y="800" as="sourcePoint" />
            <mxPoint x="1744.3100000000002" y="740" as="targetPoint" />
          </mxGeometry>
        </mxCell>
        <mxCell id="0KgAQqfXrcrtNe9VFqc--348" value="" style="html=1;points=[[0,0,0,0,5],[0,1,0,0,-5],[1,0,0,0,5],[1,1,0,0,-5]];perimeter=orthogonalPerimeter;outlineConnect=0;targetShapes=umlLifeline;portConstraint=eastwest;newEdgeStyle={&quot;curved&quot;:0,&quot;rounded&quot;:0};" vertex="1" parent="1">
          <mxGeometry x="1734.5100000000002" y="690" width="20" height="50" as="geometry" />
        </mxCell>
        <mxCell id="0KgAQqfXrcrtNe9VFqc--349" value="" style="endArrow=none;dashed=1;html=1;rounded=0;" edge="1" parent="1">
          <mxGeometry width="50" height="50" relative="1" as="geometry">
            <mxPoint x="1480" y="410" as="sourcePoint" />
            <mxPoint x="1479.7600000000002" y="294" as="targetPoint" />
          </mxGeometry>
        </mxCell>
        <mxCell id="0KgAQqfXrcrtNe9VFqc--350" value="" style="endArrow=none;dashed=1;html=1;rounded=0;" edge="1" parent="1" source="0KgAQqfXrcrtNe9VFqc--306">
          <mxGeometry width="50" height="50" relative="1" as="geometry">
            <mxPoint x="1479.88" y="515" as="sourcePoint" />
            <mxPoint x="1479.7600000000002" y="465" as="targetPoint" />
          </mxGeometry>
        </mxCell>
        <mxCell id="0KgAQqfXrcrtNe9VFqc--351" value="" style="endArrow=none;dashed=1;html=1;rounded=0;" edge="1" parent="1" source="0KgAQqfXrcrtNe9VFqc--321">
          <mxGeometry width="50" height="50" relative="1" as="geometry">
            <mxPoint x="1480.12" y="625" as="sourcePoint" />
            <mxPoint x="1479.88" y="570" as="targetPoint" />
          </mxGeometry>
        </mxCell>
        <mxCell id="0KgAQqfXrcrtNe9VFqc--352" value="" style="endArrow=none;dashed=1;html=1;rounded=0;" edge="1" parent="1" source="0KgAQqfXrcrtNe9VFqc--324">
          <mxGeometry width="50" height="50" relative="1" as="geometry">
            <mxPoint x="1480.12" y="795" as="sourcePoint" />
            <mxPoint x="1479.88" y="740" as="targetPoint" />
          </mxGeometry>
        </mxCell>
        <mxCell id="0KgAQqfXrcrtNe9VFqc--353" value="" style="endArrow=none;dashed=1;html=1;rounded=0;" edge="1" parent="1" source="0KgAQqfXrcrtNe9VFqc--337">
          <mxGeometry width="50" height="50" relative="1" as="geometry">
            <mxPoint x="1479.92" y="910" as="sourcePoint" />
            <mxPoint x="1479.8000000000002" y="850" as="targetPoint" />
          </mxGeometry>
        </mxCell>
        <mxCell id="0KgAQqfXrcrtNe9VFqc--477" value="" style="shape=umlActor;verticalLabelPosition=bottom;verticalAlign=top;html=1;" vertex="1" parent="1">
          <mxGeometry x="1245" y="20" width="30" height="60" as="geometry" />
        </mxCell>
      </root>
    </mxGraphModel>
  </diagram>
</mxfile>
